# xmcd
#
# Track frame offsets: 
#        150
#        17287
#        48040
#        68905
#        86450
#        109016
#        131921
#        165715
#        185870
#        203918
#        226385
#        247159
#        269140
#        288416
#
# Disc length: 4209 seconds
#
# Revision: 0
# Processed by: cddbd v1.5.2PL0 Copyright (c) Steve Scherf et al.
# Submitted via: ExactAudioCopy v1.1
#
DISCID=cd106f0e
DTITLE=Guido Belcanto - 30 Jaar - CD 1 - Hits Live Met Het Broederscha
DTITLE=p
DYEAR=2019
DGENRE=Chanson
TTITLE0=Op De Pechstrook Van Het Leven (Live)
TTITLE1=La Pasionaria (Live)
TTITLE2=O Wat Een Mooie Dag (Live)
TTITLE3=De Vrouw Van De Bakker (Live)
TTITLE4=Vlammetjes (Live)
TTITLE5=Ik Zou Mijn Hart Willen Weggeven (Live)
TTITLE6=Rome Bij Nacht (Live)
TTITLE7=Ik Weet Niet Waar Mijn Meisje Is (Live)
TTITLE8=Geef Me Liefde (Live)
TTITLE9=Toverdrank (Live)
TTITLE10=Droevig Is Deze Wereld (Live)
TTITLE11=Op Het Zeildoek Van De Botsauto's (Live)
TTITLE12=Plastic Rozen Verwelken Niet (Live)
TTITLE13=Een Zanger Moet Trachten Pijn Te Verzachten (Live)
EXTD=
EXTT0=
EXTT1=
EXTT2=
EXTT3=
EXTT4=
EXTT5=
EXTT6=
EXTT7=
EXTT8=
EXTT9=
EXTT10=
EXTT11=
EXTT12=
EXTT13=
PLAYORDER=
